<svg width="63" height="26" viewBox="0 0 63 26" fill="none" xmlns="http://www.w3.org/2000/svg">
<path d="M41.8216 16.7194L36.9079 15.0319C36.698 14.9602 36.4647 14.9451 36.2431 14.9889C36.0216 15.0326 35.8238 15.1329 35.6795 15.2745L33.5034 17.405C30.0883 16.1147 27.3399 13.9123 25.7297 11.1756L28.3884 9.43177C28.5655 9.31634 28.6908 9.15782 28.7454 8.9802C28.8 8.80258 28.781 8.61553 28.6911 8.44738L26.5852 4.50981C26.4865 4.32854 26.312 4.18054 26.0918 4.09133C25.8716 4.00213 25.6194 3.9773 25.3787 4.02113L20.816 4.86489C20.584 4.90782 20.377 5.01251 20.2288 5.16186C20.0806 5.3112 19.9999 5.4964 20 5.68721C20 14.7049 29.121 22 40.3567 22C40.5949 22.0001 40.8261 21.9355 41.0125 21.8168C41.199 21.698 41.3297 21.5321 41.3833 21.3461L42.4362 17.6898C42.4905 17.496 42.4589 17.2931 42.3467 17.116C42.2345 16.9389 42.0488 16.7987 41.8216 16.7194Z" fill="white"/>
</svg>
